<?xml version="1.0" encoding="utf-8"?>
<!-- Generator: Adobe Illustrator 25.4.0, SVG Export Plug-In . SVG Version: 6.00 Build 0)  -->
<svg version="1.1" id="Layer_1" xmlns="http://www.w3.org/2000/svg" xmlns:xlink="http://www.w3.org/1999/xlink" x="0px" y="0px"
	 viewBox="0 0 110.02 47.271" style="enable-background:new 0 0 110.02 47.271;" xml:space="preserve">
<style type="text/css">
	.st0{fill:#333333;}
</style>
<g id="Group_6249" transform="translate(-74.774 -38.079)">
	<path id="Path_11613" class="st0" d="M74.88199,52.98c0.16064-0.16068,0.29401-0.285,0.39999-0.373
		c0.11285-0.09125,0.25497-0.1385,0.39999-0.133c0.08392-0.00105,0.16522,0.02927,0.228,0.08501
		c0.05844,0.04996,0.11111,0.10631,0.15701,0.168c0.33368,0.37482,0.70721,0.71214,1.11401,1.006
		c0.40231,0.29179,0.83438,0.54018,1.289,0.741c0.44745,0.19897,0.91382,0.3524,1.392,0.45799
		c0.46259,0.10306,0.93506,0.15536,1.409,0.15601c0.65036,0.0002,1.29874-0.07225,1.93301-0.216
		c0.60745-0.13208,1.18805-0.36641,1.71701-0.69299c0.4942-0.3098,0.91141-0.72804,1.21997-1.22301
		c0.32608-0.54506,0.4892-1.17213,0.47-1.80701c0.00711-0.37662-0.07333-0.74976-0.23499-1.09
		c-0.1568-0.31737-0.37579-0.59998-0.64401-0.83099c-0.28821-0.24663-0.60846-0.45317-0.952-0.614
		c-0.37238-0.17717-0.75665-0.3282-1.14999-0.452c-0.40536-0.12866-0.82101-0.243-1.24701-0.343s-0.83966-0.19434-1.241-0.283
		c-0.88586-0.19226-1.75729-0.44588-2.608-0.759c-0.65939-0.23627-1.28192-0.56487-1.849-0.976
		c-0.45917-0.33138-0.8356-0.76428-1.10001-1.265c-0.24884-0.5099-0.37259-1.07175-0.36099-1.63901
		c-0.01053-0.69177,0.14014-1.37651,0.44-2c0.29358-0.59505,0.72028-1.11449,1.24701-1.51801
		c0.58417-0.44075,1.246-0.76776,1.95099-0.964c0.8309-0.23361,1.69095-0.34711,2.55399-0.33701
		c1.01849-0.00616,2.02939,0.17554,2.98199,0.536c0.94247,0.36188,1.79834,0.91791,2.51199,1.632
		c0.10001,0.10001,0.18201,0.187,0.23401,0.24699c0.04855,0.05042,0.07669,0.11703,0.07901,0.187
		c-0.0112,0.08679-0.05435,0.16629-0.121,0.22301c-0.08066,0.08467-0.20099,0.203-0.36099,0.355
		c-0.07199,0.064-0.133,0.117-0.181,0.157c-0.03915,0.03676-0.09033,0.05807-0.14401,0.06
		c-0.1619-0.02824-0.31009-0.10867-0.422-0.229c-0.28134-0.24066-0.57635-0.46933-0.88501-0.686
		c-0.32077-0.22394-0.66156-0.41776-1.01801-0.57899c-0.39273-0.17526-0.80258-0.30931-1.22299-0.39999
		c-0.48856-0.10513-0.98727-0.15578-1.487-0.151c-0.69629-0.01222-1.39053,0.07912-2.06,0.271
		c-0.53159,0.15323-1.02982,0.40456-1.46899,0.741c-0.75034,0.57812-1.18726,1.4738-1.181,2.42101
		c-0.00647,0.32928,0.05939,0.65598,0.19299,0.957c0.13043,0.2803,0.31223,0.53368,0.53601,0.74699
		c0.24069,0.2294,0.51233,0.42395,0.80701,0.578c0.32294,0.17094,0.65704,0.31995,1,0.446
		c0.35733,0.13333,0.73303,0.25166,1.12701,0.355c0.39401,0.10333,0.78769,0.19966,1.181,0.289
		c0.46667,0.11267,0.95035,0.233,1.45099,0.36099c0.50067,0.12799,0.99265,0.27866,1.47601,0.452
		c0.46967,0.16644,0.92654,0.36699,1.367,0.60001c0.41577,0.21844,0.79745,0.49637,1.133,0.825
		c0.69934,0.68123,1.08154,1.6241,1.05399,2.60001c0.04636,1.57872-0.69403,3.07748-1.97601,4
		c-0.64844,0.46785-1.37714,0.8129-2.14999,1.01801c-1.44427,0.38606-2.95605,0.44788-4.427,0.181
		c-0.57846-0.1059-1.14236-0.27977-1.67999-0.51801c-1.10748-0.49025-2.07455-1.25003-2.81299-2.21001
		c-0.04999-0.05573-0.09421-0.11636-0.13199-0.181c-0.03299-0.05887-0.04956-0.12552-0.048-0.19299
		C74.77835,53.09351,74.81915,53.02432,74.88199,52.98z"/>
	<path id="Path_11614" class="st0" d="M94.43301,38.862c-0.01068-0.29527,0.22003-0.54332,0.51529-0.554
		c0.01291-0.00047,0.02582-0.00047,0.0387,0h5.70999c0.7457-0.00523,1.48431,0.14461,2.16901,0.44
		c1.33023,0.56729,2.38971,1.62677,2.957,2.957c0.58582,1.38632,0.58582,2.95068,0,4.33701
		c-0.56653,1.32762-1.6221,2.38641-2.948,2.957c-0.67752,0.29478-1.40915,0.44466-2.14801,0.44h-4.90897v6.2
		c0.03714,0.26918-0.15097,0.51749-0.42014,0.55463c-0.04608,0.00635-0.09283,0.00615-0.13885-0.00063h-0.29102
		c-0.35669,0-0.53467-0.18466-0.534-0.554L94.43301,38.862z M104.901,43.873c0.00378-0.56686-0.10886-1.12846-0.33099-1.64999
		c-0.21347-0.50174-0.51871-0.95923-0.89999-1.349c-0.38126-0.38814-0.83524-0.69736-1.336-0.91
		c-0.51678-0.22168-1.07367-0.3347-1.63599-0.332h-4.88v8.481h4.884c0.56229,0.0033,1.1192-0.10938,1.63599-0.33099
		c0.50076-0.21268,0.95474-0.5219,1.336-0.91c0.38138-0.38969,0.68661-0.84721,0.89999-1.349
		C104.79483,45.00119,104.90613,44.43959,104.901,43.873z"/>
	<path id="Path_11615" class="st0" d="M111.37003,55.715l3.25299-8.047c1.08401-2.68199,2.17633-5.36833,3.27701-8.05901
		c0.0932-0.23462,0.20383-0.46191,0.33099-0.67999c0.11545-0.19553,0.25522-0.37563,0.41599-0.536
		c0.20206-0.08382,0.41928-0.12502,0.638-0.121c0.15741-0.00679,0.31473,0.01558,0.46399,0.06599
		c0.1004,0.03339,0.1665,0.12929,0.16199,0.235c-0.0029,0.07851-0.01913,0.15594-0.048,0.229
		c-1.17267,2.85866-2.33136,5.70967-3.47601,8.55299c-1.14465,2.84334-2.29904,5.69034-3.46301,8.541
		c-0.05383,0.18069-0.2215,0.30336-0.41,0.3c-0.03641,0.00153-0.07281-0.00252-0.108-0.01199h-0.759
		c-0.22534-0.024-0.33765-0.11234-0.33701-0.265C111.31433,55.84734,111.33487,55.7776,111.37003,55.715z"/>
	<path id="Path_11616" class="st0" d="M87.61499,67.207c0.2182-0.03453,0.42307,0.11436,0.45761,0.33257
		c0.00641,0.04054,0.00656,0.08185,0.0004,0.12244v0.60001c0.00534,0.12036-0.03583,0.23817-0.11499,0.32899
		c-0.09509,0.09039-0.22427,0.13586-0.35501,0.125H77.08798v6.289h8.457c0.11862-0.00639,0.23575,0.02899,0.33099,0.10001
		c0.09265,0.08878,0.13916,0.21535,0.12601,0.343v0.61501c0.02219,0.22479-0.14203,0.42502-0.36682,0.4472
		c-0.03036,0.00301-0.06094,0.00259-0.09119-0.00121h-8.45599v7.10001h10.673c0.21832-0.03381,0.4227,0.11574,0.45651,0.33405
		c0.00574,0.03706,0.00626,0.07475,0.0015,0.11195v0.62601c0.02734,0.21309-0.1232,0.408-0.3363,0.43536
		c-0.03613,0.00464-0.07272,0.00418-0.1087-0.00136h-11.811c-0.10129,0.00438-0.20016-0.03159-0.27499-0.10001
		c-0.07825-0.08696-0.11697-0.20245-0.10699-0.319V67.653c-0.01294-0.12659,0.03061-0.25246,0.11899-0.34399
		c0.09201-0.07132,0.20679-0.10686,0.323-0.10001L87.61499,67.207z"/>
	<path id="Path_11617" class="st0" d="M100.29999,82.881c0.28131-0.69066,0.59265-1.44766,0.93399-2.271
		s0.69666-1.68266,1.06601-2.578c0.36932-0.89532,0.74866-1.81067,1.138-2.746s0.771-1.855,1.14499-2.759
		c0.37332-0.90399,0.73267-1.77733,1.078-2.62c0.34534-0.84265,0.66666-1.62566,0.96399-2.349
		c0.02853-0.07413,0.06195-0.14629,0.10001-0.216c0.03003-0.05157,0.08057-0.08794,0.13901-0.10001
		c0.09311-0.01874,0.18805-0.02679,0.28299-0.024h0.548c0.24869,0.032,0.37299,0.14833,0.37299,0.349c0,0.017,0,0.052-0.00601,0.108
		c0.00183,0.03828-0.0087,0.07614-0.03,0.108l-7.08301,17.009c-0.03656,0.08296-0.08508,0.16011-0.14401,0.229
		c-0.08963,0.07722-0.20746,0.11348-0.32501,0.10001h-0.349c-0.22217,0.00845-0.42126-0.13614-0.48199-0.35001l-7.04391-16.841
		c-0.02377-0.05252-0.04382-0.10666-0.06-0.162c-0.02444-0.08003-0.03659-0.16331-0.03601-0.24699c0-0.16,0.121-0.261,0.36099-0.3
		h0.53c0.10889-0.00499,0.21759,0.01306,0.319,0.05299c0.09744,0.06062,0.17172,0.15218,0.211,0.25999
		c0.28934,0.72266,0.60867,1.50566,0.95801,2.349c0.34937,0.84332,0.71268,1.71899,1.09,2.627l1.14999,2.76401
		c0.38934,0.93333,0.771,1.851,1.14499,2.75301c0.37396,0.90201,0.73334,1.76302,1.078,2.58299
		C99.69431,81.43332,100.01068,82.19034,100.29999,82.881z"/>
	<path id="Path_11618" class="st0" d="M125.89801,67.207c0.2182-0.03453,0.4231,0.11436,0.45758,0.33257
		c0.00647,0.04054,0.00659,0.08185,0.00043,0.12244v0.60001c0.00562,0.12024-0.03522,0.23802-0.11401,0.32899
		c-0.09534,0.09067-0.22491,0.13617-0.35602,0.125h-10.51596v6.289h8.457c0.11865-0.00639,0.23578,0.02899,0.33099,0.10001
		c0.09241,0.08896,0.13885,0.21539,0.12598,0.343v0.61501c0.02222,0.22479-0.14203,0.42502-0.36682,0.4472
		c-0.03033,0.00301-0.06091,0.00259-0.09119-0.00121h-8.457v7.10001h10.66904c0.21832-0.03381,0.42273,0.11574,0.45654,0.33405
		c0.00574,0.03706,0.00623,0.07475,0.00146,0.11195v0.62601c0.02747,0.21307-0.12305,0.40807-0.33612,0.4355
		c-0.0365,0.0047-0.07349,0.0042-0.10986-0.0015H114.246c-0.10132,0.00449-0.20023-0.03149-0.27499-0.10001
		c-0.07825-0.08696-0.11697-0.20245-0.10699-0.319V67.653c-0.01266-0.12675,0.03125-0.25262,0.12-0.34399
		c0.09167-0.07126,0.20609-0.1068,0.32199-0.10001L125.89801,67.207z"/>
	<path id="Path_11619" class="st0" d="M145.763,67.617c-0.01434-0.21326,0.14691-0.39775,0.36017-0.41211
		c0.0246-0.00165,0.04938-0.00095,0.07385,0.00211h0.54199c0.27264,0,0.409,0.12866,0.409,0.386v17.118
		c0.00903,0.2141-0.15717,0.395-0.37128,0.40405c-0.02496,0.00107-0.04999-0.00031-0.07471-0.00406h-0.56598
		c-0.15662,0.00359-0.30536-0.06819-0.40002-0.19299l-12.14301-15.383v15.14301c0.02747,0.21307-0.12305,0.40807-0.33612,0.4355
		c-0.0365,0.0047-0.07349,0.0042-0.10986-0.0015h-0.50598c-0.20996,0.02972-0.4043-0.11642-0.43402-0.3264
		c-0.00507-0.03569-0.00507-0.07191,0-0.1076V67.653c-0.00269-0.08733,0.00537-0.17464,0.02399-0.25999
		c0.0202-0.064,0.0733-0.11215,0.13898-0.12601c0.11414-0.02861,0.23138-0.04272,0.349-0.04201
		c0.15668-0.004,0.37164-0.00601,0.64502-0.006c0.09125,0.00148,0.17633,0.04643,0.229,0.121
		c0.94733,1.196,1.935,2.44067,2.96301,3.73399c1.02802,1.29333,2.06598,2.59633,3.11401,3.909l3.12,3.909
		c1.03198,1.29266,2.02197,2.53766,2.96997,3.735L145.763,67.617z"/>
	<path id="Path_11620" class="st0" d="M166.11002,67.207c0.11981-0.00536,0.23743,0.03302,0.33099,0.108
		c0.09015,0.08496,0.14423,0.20131,0.151,0.325v0.494c0.00421,0.12367-0.03906,0.24426-0.12097,0.33701
		c-0.09558,0.09413-0.22723,0.14226-0.36102,0.132h-5.58905v16.058c0.03082,0.21541-0.11877,0.41502-0.33417,0.44588
		c-0.03674,0.00526-0.0741,0.00531-0.11084,0.00012h-0.495c-0.21545,0.03036-0.41473-0.11969-0.44513-0.33516
		c-0.00519-0.03677-0.00513-0.07408,0.00012-0.11084V68.604h-5.63702c-0.28937-0.00002-0.43402-0.15634-0.43402-0.46899v-0.494
		c-0.01965-0.22003,0.14276-0.41435,0.36279-0.43401c0.02374-0.00212,0.04755-0.00212,0.07123,0H166.11002z"/>
	<path id="Path_11621" class="st0" d="M171.67499,81.892c0.16064-0.16066,0.29407-0.28499,0.40002-0.373
		c0.11285-0.09126,0.255-0.1385,0.40002-0.133c0.08429-0.0013,0.16602,0.02902,0.229,0.08501
		c0.05853,0.04987,0.11121,0.10623,0.15698,0.168c0.33368,0.37485,0.70721,0.71217,1.11401,1.006
		c0.40234,0.29175,0.83441,0.54013,1.289,0.741c0.44745,0.19897,0.91382,0.3524,1.39203,0.45799
		c0.46265,0.10283,0.93506,0.15514,1.409,0.15601c0.65033,0.00015,1.29871-0.0723,1.93298-0.216
		c0.60742-0.13211,1.18805-0.36644,1.71698-0.69299c0.4975-0.30873,0.91785-0.72704,1.229-1.22301
		c0.32605-0.54509,0.48914-1.17215,0.46997-1.80701c0.00708-0.37662-0.07336-0.74974-0.23499-1.09
		c-0.1568-0.31737-0.37579-0.59998-0.64398-0.83099c-0.28821-0.24661-0.60846-0.45314-0.95203-0.614
		c-0.37268-0.17722-0.75732-0.32825-1.151-0.452c-0.40533-0.12866-0.82098-0.243-1.24701-0.343s-0.83972-0.19435-1.24103-0.283
		c-0.88586-0.19225-1.75726-0.44585-2.60797-0.759c-0.65936-0.23625-1.28192-0.56485-1.849-0.976
		c-0.45911-0.33142-0.83551-0.76433-1.09998-1.265c-0.24878-0.5099-0.37256-1.07175-0.36102-1.63901
		c-0.01056-0.69179,0.14008-1.37653,0.44-2c0.29358-0.59503,0.72028-1.11446,1.24701-1.51801
		c0.58417-0.44073,1.24603-0.76775,1.95099-0.964c0.83093-0.2336,1.69098-0.34708,2.55402-0.33701
		c1.01849-0.00616,2.02942,0.17554,2.98199,0.536c0.94269,0.36147,1.79865,0.91756,2.51202,1.632
		c0.09998,0.10001,0.18201,0.187,0.23401,0.24699c0.04865,0.05037,0.07678,0.11702,0.07898,0.187
		c-0.01123,0.08679-0.05432,0.16629-0.12097,0.22301c-0.08099,0.08501-0.20001,0.2-0.36102,0.355
		c-0.07202,0.064-0.133,0.117-0.18103,0.157c-0.03955,0.03676-0.09106,0.05804-0.14502,0.06
		c-0.16187-0.02831-0.31006-0.10872-0.422-0.229c-0.28137-0.24065-0.57635-0.46933-0.88501-0.686
		c-0.3208-0.22389-0.66156-0.41771-1.01801-0.57899c-0.39282-0.17502-0.80267-0.30905-1.22302-0.39999
		c-0.48859-0.10489-0.9873-0.15553-1.487-0.151c-0.69629-0.01219-1.39056,0.07915-2.06,0.271
		c-0.53168,0.15352-1.02991,0.40518-1.46899,0.742c-0.75037,0.57812-1.18726,1.47379-1.18103,2.42101
		c-0.00647,0.32928,0.05939,0.65598,0.19299,0.957c0.13049,0.28027,0.31226,0.53365,0.53601,0.74699
		c0.24072,0.22939,0.51233,0.42393,0.80701,0.578c0.32306,0.17075,0.6571,0.31973,1,0.446
		c0.35736,0.13333,0.73297,0.25166,1.12701,0.355c0.39398,0.10333,0.78772,0.19966,1.18103,0.289
		c0.46667,0.11267,0.95032,0.233,1.45099,0.36099s0.99268,0.27866,1.47601,0.452c0.46967,0.16643,0.92657,0.36697,1.367,0.60001
		c0.41577,0.2184,0.79749,0.49634,1.133,0.825c0.69934,0.68123,1.0816,1.6241,1.05402,2.60001
		c0.04657,1.57877-0.69391,3.07761-1.97601,4c-0.64844,0.46788-1.37714,0.81291-2.15002,1.01801
		c-1.44427,0.38609-2.95605,0.44791-4.427,0.181c-0.57843-0.10588-1.14233-0.27975-1.67999-0.51801
		c-1.10724-0.49066-2.07422-1.25037-2.81299-2.21001c-0.04999-0.05574-0.09424-0.11638-0.13202-0.181
		c-0.03296-0.05888-0.04956-0.12553-0.04797-0.19299C171.57709,82.00748,171.61487,81.9381,171.67499,81.892z"/>
</g>
</svg>
