<?xml version="1.0" encoding="utf-8"?>
<!-- Generator: Adobe Illustrator 25.2.2, SVG Export Plug-In . SVG Version: 6.00 Build 0)  -->
<!DOCTYPE svg PUBLIC "-//W3C//DTD SVG 1.1//EN" "http://www.w3.org/Graphics/SVG/1.1/DTD/svg11.dtd" [
	<!ENTITY ns_extend "http://ns.adobe.com/Extensibility/1.0/">
	<!ENTITY ns_ai "http://ns.adobe.com/AdobeIllustrator/10.0/">
	<!ENTITY ns_graphs "http://ns.adobe.com/Graphs/1.0/">
	<!ENTITY ns_vars "http://ns.adobe.com/Variables/1.0/">
	<!ENTITY ns_imrep "http://ns.adobe.com/ImageReplacement/1.0/">
	<!ENTITY ns_sfw "http://ns.adobe.com/SaveForWeb/1.0/">
	<!ENTITY ns_custom "http://ns.adobe.com/GenericCustomNamespace/1.0/">
	<!ENTITY ns_adobe_xpath "http://ns.adobe.com/XPath/1.0/">
]>
<svg version="1.1" id="Layer_1" xmlns:x="&ns_extend;" xmlns:i="&ns_ai;" xmlns:graph="&ns_graphs;"
	 xmlns="http://www.w3.org/2000/svg" xmlns:xlink="http://www.w3.org/1999/xlink" x="0px" y="0px" viewBox="0 0 54 54"
	 style="enable-background:new 0 0 54 54;" xml:space="preserve">
<style type="text/css">
	.st0{fill:#666666;}
</style>
<metadata>
	<sfw  xmlns="&ns_sfw;">
		<slices></slices>
		<sliceSourceBounds  bottomLeftOrigin="true" height="54" width="54" x="0" y="0"></sliceSourceBounds>
	</sfw>
</metadata>
<g id="Group_6024" transform="translate(3630 -25)">
	<path class="st0" d="M-3603,79c-14.9,0-27-12.1-27-27c0-14.9,12.1-27,27-27s27,12.1,27,27C-3576,66.9-3588.1,79-3603,79z M-3603,27
		c-13.8,0-25,11.2-25,25s11.2,25,25,25c13.8,0,25-11.2,25-25S-3589.2,27-3603,27z"/>
	<path id="Facebook-2" class="st0" d="M-3601.2,62.7h-4.7V52.6h-2.4v-3.9h2.4v-2.3c0-3.2,1.3-5,5.1-5h3.2v3.9h-2
		c-1.5,0-1.6,0.5-1.6,1.6l0,1.9h3.6l-0.4,3.9h-3.2V62.7z"/>
</g>
</svg>
