<?xml version="1.0" encoding="utf-8"?>
<!-- Generator: Adobe Illustrator 25.2.2, SVG Export Plug-In . SVG Version: 6.00 Build 0)  -->
<!DOCTYPE svg PUBLIC "-//W3C//DTD SVG 1.1//EN" "http://www.w3.org/Graphics/SVG/1.1/DTD/svg11.dtd" [
	<!ENTITY ns_extend "http://ns.adobe.com/Extensibility/1.0/">
	<!ENTITY ns_ai "http://ns.adobe.com/AdobeIllustrator/10.0/">
	<!ENTITY ns_graphs "http://ns.adobe.com/Graphs/1.0/">
	<!ENTITY ns_vars "http://ns.adobe.com/Variables/1.0/">
	<!ENTITY ns_imrep "http://ns.adobe.com/ImageReplacement/1.0/">
	<!ENTITY ns_sfw "http://ns.adobe.com/SaveForWeb/1.0/">
	<!ENTITY ns_custom "http://ns.adobe.com/GenericCustomNamespace/1.0/">
	<!ENTITY ns_adobe_xpath "http://ns.adobe.com/XPath/1.0/">
]>
<svg version="1.1" id="Layer_1" xmlns:x="&ns_extend;" xmlns:i="&ns_ai;" xmlns:graph="&ns_graphs;"
	 xmlns="http://www.w3.org/2000/svg" xmlns:xlink="http://www.w3.org/1999/xlink" x="0px" y="0px" viewBox="0 0 54.005 54.005"
	 style="enable-background:new 0 0 54.005 54.005;" xml:space="preserve">
<style type="text/css">
	.st0{fill:#333333;}
</style>
<metadata>
	<sfw  xmlns="&ns_sfw;">
		<slices></slices>
		<sliceSourceBounds  bottomLeftOrigin="true" height="54.00391" width="54.00586" x="0" y="0.00109"></sliceSourceBounds>
	</sfw>
</metadata>
<g id="Group_6024" transform="translate(3630 -25)">
	<path class="st0" d="M-3602.99707,79.00391c-14.88965,0-27.00293-12.11328-27.00293-27.00195
		C-3630,37.11279-3617.88672,25-3602.99707,25s27.00293,12.11279,27.00293,27.00195
		C-3575.99414,66.89062-3588.10742,79.00391-3602.99707,79.00391z M-3602.99707,27C-3616.78369,27-3628,38.21582-3628,52.00195
		s11.21631,25.00195,25.00293,25.00195c13.78711,0,25.00293-11.21582,25.00293-25.00195S-3589.20996,27-3602.99707,27z"/>
	<path id="Facebook-2" class="st0" d="M-3601.23804,62.67004h-4.729V52.59503h-2.36401v-3.88202h2.36401v-2.32898
		c0-3.16498,1.33301-5.04901,5.12598-5.04901h3.15601v3.88202h-1.97217c-1.47583,0-1.57373,0.54199-1.57373,1.55499l-0.0061,1.94098
		h3.57397l-0.41895,3.88202h-3.15601V62.67004z"/>
</g>
</svg>
